<mxfile host="app.diagrams.net" modified="2023-10-02T02:46:17.928Z" agent="Mozilla/5.0 (Windows NT 10.0; Win64; x64; rv:109.0) Gecko/20100101 Firefox/118.0" etag="Pj90rP21vD5pYKxqggMT" version="21.8.2" type="device">
  <diagram name="Page-1" id="NYpdusXRe-5Q48nrc2SD">
    <mxGraphModel dx="2593" dy="1025" grid="0" gridSize="10" guides="1" tooltips="1" connect="1" arrows="1" fold="1" page="1" pageScale="1" pageWidth="1654" pageHeight="1169" math="0" shadow="0">
      <root>
        <mxCell id="0" />
        <mxCell id="1" parent="0" />
        <mxCell id="BnxCV7DyVBP9lFKoRa-R-29" style="edgeStyle=orthogonalEdgeStyle;rounded=0;orthogonalLoop=1;jettySize=auto;html=1;entryX=0;entryY=0.5;entryDx=0;entryDy=0;exitX=0.5;exitY=0;exitDx=0;exitDy=0;" edge="1" parent="1" source="BnxCV7DyVBP9lFKoRa-R-6" target="BnxCV7DyVBP9lFKoRa-R-28">
          <mxGeometry relative="1" as="geometry" />
        </mxCell>
        <mxCell id="BnxCV7DyVBP9lFKoRa-R-32" style="edgeStyle=orthogonalEdgeStyle;rounded=0;orthogonalLoop=1;jettySize=auto;html=1;entryX=1;entryY=0.5;entryDx=0;entryDy=0;" edge="1" parent="1" source="BnxCV7DyVBP9lFKoRa-R-6" target="BnxCV7DyVBP9lFKoRa-R-31">
          <mxGeometry relative="1" as="geometry" />
        </mxCell>
        <mxCell id="BnxCV7DyVBP9lFKoRa-R-6" value="&lt;p style=&quot;margin:0px;margin-top:4px;text-align:center;&quot;&gt;&lt;i&gt;&amp;lt;&amp;lt;abstract&amp;gt;&amp;gt;&lt;b&gt;&lt;br&gt;&lt;/b&gt;&lt;/i&gt;&lt;/p&gt;&lt;p style=&quot;margin:0px;margin-top:4px;text-align:center;&quot;&gt;&lt;b&gt;Person&lt;/b&gt;&lt;/p&gt;&lt;hr size=&quot;1&quot;&gt;&lt;p style=&quot;margin:0px;margin-left:4px;&quot;&gt;- cpf: String&lt;br&gt;&lt;/p&gt;&lt;p style=&quot;margin:0px;margin-left:4px;&quot;&gt;- name : String&lt;/p&gt;&lt;p style=&quot;margin:0px;margin-left:4px;&quot;&gt;- institution : String&lt;br&gt;&lt;/p&gt;&lt;hr size=&quot;1&quot;&gt;" style="verticalAlign=top;align=left;overflow=fill;fontSize=12;fontFamily=Helvetica;html=1;whiteSpace=wrap;" vertex="1" parent="1">
          <mxGeometry x="339.5" y="253" width="193.5" height="138" as="geometry" />
        </mxCell>
        <mxCell id="BnxCV7DyVBP9lFKoRa-R-12" style="edgeStyle=orthogonalEdgeStyle;rounded=0;orthogonalLoop=1;jettySize=auto;html=1;entryX=0.5;entryY=1;entryDx=0;entryDy=0;exitX=0.5;exitY=0;exitDx=0;exitDy=0;endArrow=block;endFill=0;" edge="1" parent="1" source="BnxCV7DyVBP9lFKoRa-R-8" target="BnxCV7DyVBP9lFKoRa-R-6">
          <mxGeometry relative="1" as="geometry" />
        </mxCell>
        <mxCell id="BnxCV7DyVBP9lFKoRa-R-8" value="&lt;p style=&quot;margin:0px;margin-top:4px;text-align:center;&quot;&gt;&lt;b&gt;Student&lt;/b&gt;&lt;/p&gt;&lt;hr size=&quot;1&quot;&gt;&lt;p style=&quot;margin:0px;margin-left:4px;&quot;&gt;- address : String&lt;/p&gt;&lt;p style=&quot;margin:0px;margin-left:4px;&quot;&gt;- course: String&lt;br&gt;&lt;/p&gt;&lt;p style=&quot;margin:0px;margin-left:4px;&quot;&gt;- myBenefits : List&amp;lt;Benefit&amp;gt;&lt;/p&gt;&lt;hr size=&quot;1&quot;&gt;+ viewBalance(): BigDecimal&lt;div align=&quot;left&quot;&gt;+ sendCoins(Student, BigDecimal) :&amp;nbsp; void&lt;/div&gt;&lt;div align=&quot;left&quot;&gt;+ exchange(Benefit) : void&lt;br&gt;&lt;/div&gt;" style="verticalAlign=top;align=left;overflow=fill;fontSize=12;fontFamily=Helvetica;html=1;whiteSpace=wrap;" vertex="1" parent="1">
          <mxGeometry x="70" y="579" width="253" height="141" as="geometry" />
        </mxCell>
        <mxCell id="BnxCV7DyVBP9lFKoRa-R-15" style="edgeStyle=orthogonalEdgeStyle;rounded=0;orthogonalLoop=1;jettySize=auto;html=1;entryX=0.5;entryY=1;entryDx=0;entryDy=0;endArrow=block;endFill=0;exitX=0.5;exitY=0;exitDx=0;exitDy=0;" edge="1" parent="1" source="BnxCV7DyVBP9lFKoRa-R-10" target="BnxCV7DyVBP9lFKoRa-R-6">
          <mxGeometry relative="1" as="geometry">
            <Array as="points">
              <mxPoint x="511" y="579" />
              <mxPoint x="511" y="485" />
              <mxPoint x="436" y="485" />
            </Array>
          </mxGeometry>
        </mxCell>
        <mxCell id="BnxCV7DyVBP9lFKoRa-R-10" value="&lt;p style=&quot;margin:0px;margin-top:4px;text-align:center;&quot;&gt;&lt;b&gt;Teacher&lt;/b&gt;&lt;/p&gt;&lt;hr size=&quot;1&quot;&gt;&lt;p style=&quot;margin:0px;margin-left:4px;&quot;&gt;- department : String&lt;br&gt;&lt;/p&gt;&lt;hr size=&quot;1&quot;&gt;&lt;p style=&quot;margin:0px;margin-left:4px;&quot;&gt;+ viewBalance(): BigDecimal&lt;/p&gt;&lt;p style=&quot;margin:0px;margin-left:4px;&quot;&gt;+ sendCoins(Student, BigDecimal) :&amp;nbsp; void&lt;/p&gt;" style="verticalAlign=top;align=left;overflow=fill;fontSize=12;fontFamily=Helvetica;html=1;whiteSpace=wrap;" vertex="1" parent="1">
          <mxGeometry x="398" y="579" width="238" height="90" as="geometry" />
        </mxCell>
        <mxCell id="BnxCV7DyVBP9lFKoRa-R-11" value="&lt;p style=&quot;margin:0px;margin-top:4px;text-align:center;&quot;&gt;&lt;b&gt;Partner&lt;/b&gt;&lt;/p&gt;&lt;hr size=&quot;1&quot;&gt;&lt;p style=&quot;margin:0px;margin-left:4px;&quot;&gt;&lt;br&gt;&lt;/p&gt;&lt;hr size=&quot;1&quot;&gt;&lt;p style=&quot;margin:0px;margin-left:4px;&quot;&gt;+ addBenefit(): void&lt;/p&gt;" style="verticalAlign=top;align=left;overflow=fill;fontSize=12;fontFamily=Helvetica;html=1;whiteSpace=wrap;" vertex="1" parent="1">
          <mxGeometry x="561" y="751" width="160" height="90" as="geometry" />
        </mxCell>
        <mxCell id="BnxCV7DyVBP9lFKoRa-R-17" value="&lt;p style=&quot;margin:0px;margin-top:4px;text-align:center;&quot;&gt;&lt;b&gt;Wallet&lt;/b&gt;&lt;/p&gt;&lt;hr size=&quot;1&quot;&gt;&lt;p style=&quot;margin:0px;margin-left:4px;&quot;&gt;- balance : BigDecimal&lt;br&gt;&lt;/p&gt;&lt;hr size=&quot;1&quot;&gt;&lt;p style=&quot;margin:0px;margin-left:4px;&quot;&gt;- viewBalance(): BigDecimal&lt;/p&gt;" style="verticalAlign=top;align=left;overflow=fill;fontSize=12;fontFamily=Helvetica;html=1;whiteSpace=wrap;" vertex="1" parent="1">
          <mxGeometry x="670" y="265" width="160" height="114" as="geometry" />
        </mxCell>
        <mxCell id="BnxCV7DyVBP9lFKoRa-R-20" value="1" style="endArrow=open;html=1;endSize=12;startArrow=diamondThin;startSize=14;startFill=1;edgeStyle=orthogonalEdgeStyle;align=left;verticalAlign=bottom;rounded=0;exitX=1;exitY=0.5;exitDx=0;exitDy=0;entryX=0;entryY=0.5;entryDx=0;entryDy=0;" edge="1" parent="1" source="BnxCV7DyVBP9lFKoRa-R-6" target="BnxCV7DyVBP9lFKoRa-R-17">
          <mxGeometry x="-1" y="3" relative="1" as="geometry">
            <mxPoint x="581" y="388" as="sourcePoint" />
            <mxPoint x="741" y="388" as="targetPoint" />
          </mxGeometry>
        </mxCell>
        <mxCell id="BnxCV7DyVBP9lFKoRa-R-30" style="edgeStyle=orthogonalEdgeStyle;rounded=0;orthogonalLoop=1;jettySize=auto;html=1;entryX=0.5;entryY=0;entryDx=0;entryDy=0;exitX=1;exitY=0.5;exitDx=0;exitDy=0;" edge="1" parent="1" source="BnxCV7DyVBP9lFKoRa-R-28" target="BnxCV7DyVBP9lFKoRa-R-17">
          <mxGeometry relative="1" as="geometry" />
        </mxCell>
        <mxCell id="BnxCV7DyVBP9lFKoRa-R-28" value="&lt;p style=&quot;margin:0px;margin-top:4px;text-align:center;&quot;&gt;&lt;b&gt;Transaction&lt;/b&gt;&lt;/p&gt;&lt;hr size=&quot;1&quot;&gt;&lt;p style=&quot;margin:0px;margin-left:4px;&quot;&gt;- amount : BigDecimal&lt;br&gt;- reason : String&lt;/p&gt;&lt;hr size=&quot;1&quot;&gt;&lt;p style=&quot;margin:0px;margin-left:4px;&quot;&gt;&lt;br&gt;&lt;/p&gt;" style="verticalAlign=top;align=left;overflow=fill;fontSize=12;fontFamily=Helvetica;html=1;whiteSpace=wrap;" vertex="1" parent="1">
          <mxGeometry x="510" y="98" width="160" height="80" as="geometry" />
        </mxCell>
        <mxCell id="BnxCV7DyVBP9lFKoRa-R-31" value="&lt;p style=&quot;margin:0px;margin-top:4px;text-align:center;&quot;&gt;&lt;b&gt;System&lt;/b&gt;&lt;/p&gt;&lt;hr size=&quot;1&quot;&gt;&lt;br&gt;&lt;hr size=&quot;1&quot;&gt;&lt;div&gt;+ login() : void&lt;/div&gt;&lt;div&gt;+ register() : void&lt;br&gt;&lt;/div&gt;" style="verticalAlign=top;align=left;overflow=fill;fontSize=12;fontFamily=Helvetica;html=1;whiteSpace=wrap;" vertex="1" parent="1">
          <mxGeometry x="131" y="271.5" width="160" height="101" as="geometry" />
        </mxCell>
        <mxCell id="BnxCV7DyVBP9lFKoRa-R-33" value="&lt;p style=&quot;margin:0px;margin-top:4px;text-align:center;&quot;&gt;&lt;b&gt;Benefit&lt;/b&gt;&lt;/p&gt;&lt;hr size=&quot;1&quot;&gt;&lt;p style=&quot;margin:0px;margin-left:4px;&quot;&gt;- amount : BigDecimal&lt;br&gt;- reason : String&lt;/p&gt;&lt;hr size=&quot;1&quot;&gt;&lt;p style=&quot;margin:0px;margin-left:4px;&quot;&gt;&lt;br&gt;&lt;/p&gt;" style="verticalAlign=top;align=left;overflow=fill;fontSize=12;fontFamily=Helvetica;html=1;whiteSpace=wrap;" vertex="1" parent="1">
          <mxGeometry x="311" y="751" width="160" height="80" as="geometry" />
        </mxCell>
        <mxCell id="BnxCV7DyVBP9lFKoRa-R-34" style="edgeStyle=orthogonalEdgeStyle;rounded=0;orthogonalLoop=1;jettySize=auto;html=1;entryX=0.995;entryY=0.555;entryDx=0;entryDy=0;entryPerimeter=0;exitX=0;exitY=0.5;exitDx=0;exitDy=0;" edge="1" parent="1" source="BnxCV7DyVBP9lFKoRa-R-11" target="BnxCV7DyVBP9lFKoRa-R-33">
          <mxGeometry relative="1" as="geometry" />
        </mxCell>
        <mxCell id="BnxCV7DyVBP9lFKoRa-R-35" style="edgeStyle=orthogonalEdgeStyle;rounded=0;orthogonalLoop=1;jettySize=auto;html=1;entryX=-0.001;entryY=0.614;entryDx=0;entryDy=0;entryPerimeter=0;exitX=0.5;exitY=1;exitDx=0;exitDy=0;" edge="1" parent="1" source="BnxCV7DyVBP9lFKoRa-R-8" target="BnxCV7DyVBP9lFKoRa-R-33">
          <mxGeometry relative="1" as="geometry" />
        </mxCell>
      </root>
    </mxGraphModel>
  </diagram>
</mxfile>
